<?xml version="1.0" encoding="utf-8"?>
<!-- Generator: Adobe Illustrator 22.1.0, SVG Export Plug-In . SVG Version: 6.00 Build 0)  -->
<svg version="1.1" id="Layer_1" xmlns="http://www.w3.org/2000/svg" xmlns:xlink="http://www.w3.org/1999/xlink" x="0px" y="0px"
	 viewBox="0 0 250 110" style="enable-background:new 0 0 250 110;" xml:space="preserve">
<style type="text/css">
	.st0{clip-path:url(#SVGID_2_);}
	.st1{clip-path:url(#SVGID_4_);fill:#FFFFFF;}
	.st2{clip-path:url(#SVGID_6_);}
	.st3{clip-path:url(#SVGID_8_);fill:#FFFFFF;}
	.st4{clip-path:url(#SVGID_10_);}
	.st5{clip-path:url(#SVGID_12_);fill:#FFFFFF;}
	.st6{clip-path:url(#SVGID_14_);}
	.st7{clip-path:url(#SVGID_16_);fill:#FFFFFF;}
</style>
<g>
	<g>
		<defs>
			<path id="SVGID_1_" d="M88,89.7h2.5v-2.7H88V89.7z M88,106h2.4V92.4H88V106z M96.5,94.4c0.4-0.7,1-1.3,1.8-1.8
				c0.8-0.4,1.7-0.6,2.9-0.6c1.6,0,2.8,0.4,3.6,1.3c0.8,0.9,1.2,2.2,1.2,3.9v8.7h-2.4v-8.5c0-1.2-0.2-2-0.7-2.6
				c-0.5-0.6-1.2-0.8-2.3-0.8c-1.2,0-2.2,0.4-2.9,1.2c-0.7,0.8-1.1,1.9-1.1,3.4v7.3h-2.4V92.4h1.3c0.7,0,1.1,0.3,1.1,1V94.4z
				 M114.1,94.1c-0.7,0-1.4,0.1-1.9,0.4c-0.5,0.3-0.8,0.8-0.8,1.4c0,0.3,0.1,0.6,0.3,0.9s0.7,0.6,1.4,0.8l2.5,0.8
				c1.2,0.4,2.1,0.8,2.6,1.4c0.5,0.6,0.8,1.4,0.8,2.3c0,1.3-0.4,2.3-1.4,3.1c-0.9,0.8-2.2,1.2-3.9,1.2c-1.1,0-2.1-0.2-3-0.5
				c-0.9-0.3-1.7-0.8-2.3-1.4l1.1-1.7c0.6,0.5,1.2,0.8,1.9,1.1c0.7,0.3,1.5,0.4,2.3,0.4c0.8,0,1.5-0.2,2-0.5
				c0.5-0.3,0.8-0.9,0.8-1.6c0-0.5-0.1-0.8-0.4-1.1c-0.3-0.3-0.7-0.5-1.4-0.7l-2.6-0.8c-1.1-0.3-2-0.8-2.5-1.4
				c-0.5-0.6-0.8-1.4-0.8-2.3c0-0.7,0.1-1.2,0.4-1.7c0.3-0.5,0.6-0.9,1.1-1.2c0.5-0.3,1-0.6,1.6-0.7c0.6-0.2,1.3-0.2,2-0.2
				c0.9,0,1.7,0.1,2.6,0.3c0.8,0.2,1.6,0.6,2.2,1.1l-0.9,1.7c-0.5-0.3-1.1-0.6-1.7-0.8C115.5,94.2,114.8,94.1,114.1,94.1z
				 M121.8,89.7h2.5v-2.7h-2.5V89.7z M121.9,106h2.4V92.4h-2.4V106z M140.3,106H139c-0.7,0-1.1-0.3-1.1-1v-1c-0.4,0.7-1,1.3-1.8,1.7
				c-0.8,0.4-1.7,0.7-2.8,0.7c-1,0-1.9-0.2-2.6-0.5c-0.8-0.3-1.4-0.8-1.9-1.5c-0.5-0.6-0.9-1.4-1.2-2.3c-0.3-0.9-0.4-1.8-0.4-2.9
				c0-1.1,0.1-2,0.4-2.9c0.3-0.9,0.7-1.6,1.2-2.3c0.5-0.6,1.2-1.1,2-1.5c0.8-0.4,1.7-0.5,2.6-0.5c1,0,1.9,0.2,2.6,0.6
				c0.7,0.4,1.3,0.9,1.8,1.6v-7.7h2.4V106z M137.9,99.2c0-1.7-0.3-2.9-1-3.8c-0.7-0.9-1.7-1.3-3-1.3c-1.3,0-2.3,0.4-3,1.3
				c-0.7,0.9-1.1,2.1-1.1,3.8c0,1.7,0.4,2.9,1.1,3.8c0.7,0.9,1.7,1.3,3,1.3c1.3,0,2.3-0.5,3-1.4C137.6,102,137.9,100.8,137.9,99.2z
				 M145.6,99.8c0.1,1.5,0.5,2.6,1.3,3.4c0.8,0.8,1.9,1.1,3.4,1.1c1.4,0,2.6-0.4,3.5-1.1l1,1.6c-0.6,0.5-1.3,0.9-2.1,1.2
				c-0.8,0.3-1.7,0.4-2.6,0.4c-1.1,0-2-0.2-2.9-0.5c-0.9-0.3-1.6-0.8-2.2-1.4c-0.6-0.6-1.1-1.4-1.4-2.3c-0.3-0.9-0.5-2-0.5-3.1
				c0-1.1,0.2-2.1,0.5-3c0.3-0.9,0.8-1.6,1.4-2.2c0.6-0.6,1.3-1.1,2.1-1.4c0.8-0.3,1.7-0.5,2.6-0.5c0.9,0,1.7,0.1,2.4,0.5
				c0.7,0.3,1.3,0.7,1.8,1.3c0.5,0.5,0.8,1.2,1.1,2c0.2,0.8,0.4,1.6,0.4,2.5c0,0.6,0,1.1-0.1,1.6H145.6z M149.7,94.1
				c-1.1,0-2.1,0.3-2.8,1c-0.7,0.7-1.2,1.6-1.3,2.8h7.4v-0.2c0-1.2-0.3-2.1-0.8-2.7C151.6,94.4,150.8,94.1,149.7,94.1z"/>
		</defs>
		<clipPath id="SVGID_2_">
			<use xlink:href="#SVGID_1_"  style="overflow:visible;"/>
		</clipPath>
		<g class="st0">
			<defs>
				<rect id="SVGID_3_" x="-197.2" y="-2458.4" width="1920" height="3672"/>
			</defs>
			<clipPath id="SVGID_4_">
				<use xlink:href="#SVGID_3_"  style="overflow:visible;"/>
			</clipPath>
			<rect x="83" y="81.5" class="st1" width="77.4" height="29.9"/>
		</g>
	</g>
	<g>
		<defs>
			<path id="SVGID_5_" d="M157.3,88.5v3.1h-0.7v-3.1h-1.2V88h3.2v0.6H157.3z M159.2,88v3.7h0.6v-2.6l0.9,1.7h0.6l0.9-1.7v2.6h0.6V88
				h-0.7l-1.2,2.1l-1.2-2.1H159.2z"/>
		</defs>
		<clipPath id="SVGID_6_">
			<use xlink:href="#SVGID_5_"  style="overflow:visible;"/>
		</clipPath>
		<g class="st2">
			<defs>
				<rect id="SVGID_7_" x="-197.2" y="-2458.4" width="1920" height="3672"/>
			</defs>
			<clipPath id="SVGID_8_">
				<use xlink:href="#SVGID_7_"  style="overflow:visible;"/>
			</clipPath>
			<rect x="150.3" y="83" class="st3" width="17.6" height="13.7"/>
		</g>
	</g>
	<g>
		<defs>
			<path id="SVGID_9_" d="M119.9,69.3c-22.1,2-45.1-1.2-48.4-18.4C70,42.4,73.8,33.4,79,27.7v-3c-9.3,8.1-14.3,18.4-11.4,30.6
				c3.7,15.6,23.5,24.4,53.6,21.5c11.9-1.2,27.6-5,38.4-11v-8.5C149.8,63.2,133.5,68.1,119.9,69.3z M178.1,24.5
				c-5.2-25.6-54.9-27.2-87-7.7V19c32-16.4,77.4-16.3,81.5,7.2c1.4,7.8-3,15.9-10.9,20.6v6.1C171.2,49.5,180.9,38.3,178.1,24.5z
				 M157.9,52.7c-4.3-0.4-5.8-3-5.8-6.1V20.8h5.8V52.7z M88.9,53.2c-4.3-0.4-5.8-3-5.8-6.1l0-16.9h5.8V53.2z M83.1,27.1h5.8v-5.5
				h-5.8V27.1z M123.6,52.9c-4.7,0-6.7-3.3-6.7-6.5V24.1h5.7v6.2h4.3v4.6h-4.3v11.2c0,1.3,0.6,2,2,2h2.3v4.8H123.6z M134.1,43.4
				c0,2.9,1.8,5.1,5.1,5.1c2.5,0,3.8-0.7,5.3-2.2l3.6,3.4c-2.3,2.2-4.7,3.6-8.9,3.6c-5.5,0-10.8-3-10.8-11.7
				c0-7.5,4.6-11.7,10.6-11.7c6.1,0,9.7,4.9,9.7,11.4v2.1H134.1z M138.8,34.6c-2,0-3.5,1-4.1,2.4c-0.4,0.8-0.5,1.5-0.6,2.5h8.8
				C142.9,37,141.8,34.6,138.8,34.6z M99.7,34.9v18.1H94V30.2l11.9,0c5,0,6.8,3.6,6.8,6.8v15.9h-5.7V37.1c0-1.4-0.7-2.2-2.4-2.2
				H99.7z"/>
		</defs>
		<clipPath id="SVGID_10_">
			<use xlink:href="#SVGID_9_"  style="overflow:visible;"/>
		</clipPath>
		<g class="st4">
			<defs>
				<rect id="SVGID_11_" x="-197.2" y="-2458.4" width="1920" height="3672"/>
			</defs>
			<clipPath id="SVGID_12_">
				<use xlink:href="#SVGID_11_"  style="overflow:visible;"/>
			</clipPath>
			<rect x="61.8" y="-1.4" class="st5" width="121.8" height="83.8"/>
		</g>
	</g>
	<g>
		<defs>
			<path id="SVGID_13_" d="M164.1,25.4c-1.3,0-2.3-1-2.3-2.3c0-1.3,1-2.3,2.3-2.3c1.3,0,2.3,1,2.3,2.3
				C166.4,24.4,165.4,25.4,164.1,25.4z M164.1,21.2c-1.1,0-1.9,0.9-1.9,1.9c0,1.1,0.8,1.9,1.9,1.9c1.1,0,1.9-0.9,1.9-1.9
				C166,22.1,165.2,21.2,164.1,21.2z M165.1,24.5h-0.4c0,0-0.1,0-0.1-0.1l-0.6-1c0,0-0.1,0-0.1,0h-0.2h-0.1v1c0,0.1,0,0.1-0.1,0.1
				h-0.4c-0.1,0-0.1-0.1-0.1-0.1v-2.5c0-0.1,0.1-0.2,0.2-0.2c0.1,0,0.5,0,0.7,0c0.7,0,1.1,0.2,1.1,0.9v0c0,0.4-0.2,0.6-0.5,0.7
				l0.6,1C165.2,24.4,165.2,24.4,165.1,24.5C165.2,24.5,165.2,24.5,165.1,24.5z M164.6,22.5c0-0.3-0.2-0.4-0.5-0.4h-0.3h-0.1V23
				c0.1,0,0.3,0,0.4,0C164.4,23,164.6,22.8,164.6,22.5L164.6,22.5z"/>
		</defs>
		<clipPath id="SVGID_14_">
			<use xlink:href="#SVGID_13_"  style="overflow:visible;"/>
		</clipPath>
		<g class="st6">
			<defs>
				<rect id="SVGID_15_" x="-197.2" y="-2458.4" width="1920" height="3672"/>
			</defs>
			<clipPath id="SVGID_16_">
				<use xlink:href="#SVGID_15_"  style="overflow:visible;"/>
			</clipPath>
			<rect x="156.8" y="15.8" class="st7" width="14.6" height="14.6"/>
		</g>
	</g>
</g>
</svg>
