<?xml version="1.0" encoding="utf-8"?>
<!-- Generator: Adobe Illustrator 22.1.0, SVG Export Plug-In . SVG Version: 6.00 Build 0)  -->
<svg version="1.1" id="Layer_1" xmlns="http://www.w3.org/2000/svg" xmlns:xlink="http://www.w3.org/1999/xlink" x="0px" y="0px"
	 viewBox="0 0 250 110" style="enable-background:new 0 0 250 110;" xml:space="preserve">
<style type="text/css">
	.st0{filter:url(#Adobe_OpacityMaskFilter);}
	.st1{fill:#FFFFFF;}
	.st2{mask:url(#mask-2_2_);fill:#FFFFFF;}
	.st3{fill:none;stroke:#FFFFFF;stroke-width:0.858;}
	.st4{filter:url(#Adobe_OpacityMaskFilter_1_);}
	.st5{mask:url(#mask-4_4_);fill:#FFFFFF;}
	.st6{filter:url(#Adobe_OpacityMaskFilter_2_);}
	.st7{mask:url(#mask-4_3_);fill:#FFFFFF;}
</style>
<g id="Overview">
	<g id="Overview-1920px" transform="translate(-243.000000, -2802.000000)">
		
			<g id="_x31_0994-A_x5F_AMD_x5F_RYZEN_x5F_RADEON_x5F_LOCKUP_x5F_STACKED_x5F_WHT_x5F_PRINT" transform="translate(243.000000, 2802.000000)">
			<g id="Group-3" transform="translate(0.000000, 2.021739)">
				<defs>
					<filter id="Adobe_OpacityMaskFilter" filterUnits="userSpaceOnUse" x="47.7" y="23.8" width="36.3" height="32">
						<feColorMatrix  type="matrix" values="1 0 0 0 0  0 1 0 0 0  0 0 1 0 0  0 0 0 1 0"/>
					</filter>
				</defs>
				<mask maskUnits="userSpaceOnUse" x="47.7" y="23.8" width="36.3" height="32" id="mask-2_2_">
					<g class="st0">
						<polygon id="path-1_2_" class="st1" points="47.7,23.8 47.7,55.8 84,55.8 84,23.8 						"/>
					</g>
				</mask>
				<path id="Fill-1" class="st2" d="M65.3,31.4l-4.7,12.4h9.8L65.3,31.4L65.3,31.4z M84,55.8h-8.6l-2.6-6.3H58.5l-2.4,6.3h-8.4
					l12.9-32h9.2L84,55.8L84,55.8z"/>
			</g>
			<polyline id="Fill-4" class="st1" points="115.1,25.8 122.1,25.8 122.1,57.8 114.1,57.8 114.1,37.8 105.5,47.8 104.3,47.8 
				95.6,37.8 95.6,57.8 87.7,57.8 87.7,25.8 94.6,25.8 104.9,37.7 115.1,25.8 			"/>
			<path id="Fill-5" class="st1" d="M136.1,51.9h5.2c8,0,10.4-5.4,10.4-10.1c0-5.5-3-10.1-10.5-10.1h-5.1V51.9L136.1,51.9z
				 M142.3,25.8c11.7,0,17.7,7.3,17.7,16c0,9.2-5.8,15.9-18.6,15.9h-13.2v-32H142.3L142.3,25.8z"/>
			<polyline id="Fill-6" class="st1" points="192.3,33.4 175.8,33.4 165.7,23.3 202.3,23.3 202.3,59.9 192.3,49.9 192.3,33.4 			"/>
			<polyline id="Fill-7" class="st1" points="175.8,49.9 175.8,35.4 165.4,45.7 165.4,60.2 179.9,60.2 190.2,49.9 175.8,49.9 			"/>
			<path id="Stroke-8" class="st3" d="M110.7,86.7V69.2"/>
			<polyline id="Fill-10" class="st1" points="200.5,73.2 200.5,79.7 195.3,73.2 193.4,73.2 193.4,82.6 195.3,82.6 195.3,76.1 
				200.5,82.6 202.4,82.6 202.4,73.2 200.5,73.2 			"/>
			<polyline id="Fill-11" class="st1" points="138.3,73.2 135.8,73.2 131.6,82.6 133.7,82.6 137,75.1 137,75.1 137,75.1 138.5,78.5 
				136.9,78.5 136.8,78.5 136.9,78.5 135.3,80.1 135.3,80.1 139.3,80.1 140.4,82.6 142.5,82.6 138.3,73.2 			"/>
			<polyline id="Fill-12" class="st1" points="166.1,74.8 170.4,74.8 172,73.2 164.2,73.2 164.2,82.6 171.2,82.6 171.2,81 166.1,81 
				166.1,78.7 170.5,78.7 170.5,77.1 166.1,77.1 166.1,74.8 			"/>
			<path id="Fill-13" class="st1" d="M180.5,81.1l-0.9-0.9v-4.7l0.9-0.9h3.6l0.9,0.9v4.7l-0.9,0.9H180.5L180.5,81.1z M185.1,82.6
				L185.1,82.6L185.1,82.6l1.6-1.6v-6.3l-1.6-1.6l0,0v0h-5.6v0l0,0l-1.6,1.6V81l1.6,1.6v0v0H185.1L185.1,82.6z"/>
			<path id="Fill-14" class="st1" d="M122.5,77.9h-4.1v-3.1h4.1l0.7,0.7v1.6L122.5,77.9L122.5,77.9z M123.5,79.5L123.5,79.5
				L123.5,79.5L125,78v-3.3l-1.6-1.6l0,0h-6.8v9.5h1.9v-3.1h2.9l2.2,3.1h2.2L123.5,79.5L123.5,79.5z"/>
			<path id="Fill-15" class="st1" d="M150.5,81v-6.2h4.3l0.9,0.9v4.5l-0.9,0.9H150.5L150.5,81z M155.6,73.2h-7v9.5h7l1.9-1.9v-5.7
				L155.6,73.2L155.6,73.2z"/>
			<polyline id="Fill-16" class="st1" points="70.8,75 77.4,75 70.8,80.7 70.8,82.6 80.3,82.6 80.3,80.7 73.7,80.7 80.3,75 
				80.3,73.1 70.8,73.1 70.8,75 			"/>
			<polyline id="Fill-17" class="st1" points="63.8,76.9 61.1,73.1 58.8,73.1 62.9,78.8 62.9,82.6 64.8,82.6 64.8,78.8 68.9,73.1 
				66.6,73.1 63.8,76.9 			"/>
			<polygon id="Fill-18" class="st1" points="83,75 92.5,75 92.5,73.1 83,73.1 			"/>
			<g id="Group-22" transform="translate(0.000000, 49.195652)">
				<defs>
					<filter id="Adobe_OpacityMaskFilter_1_" filterUnits="userSpaceOnUse" x="83" y="27.7" width="9.5" height="5.7">
						<feColorMatrix  type="matrix" values="1 0 0 0 0  0 1 0 0 0  0 0 1 0 0  0 0 0 1 0"/>
					</filter>
				</defs>
				<mask maskUnits="userSpaceOnUse" x="83" y="27.7" width="9.5" height="5.7" id="mask-4_4_">
					<g class="st4">
						<polygon id="path-3_4_" class="st1" points="47.7,23.9 47.7,33.4 92.5,33.4 92.5,23.9 						"/>
					</g>
				</mask>
				<polyline id="Fill-19" class="st5" points="83,27.7 83,33.4 92.5,33.4 92.5,31.5 84.9,31.5 84.9,29.6 92.5,29.6 92.5,27.7 
					83,27.7 				"/>
				<defs>
					<filter id="Adobe_OpacityMaskFilter_2_" filterUnits="userSpaceOnUse" x="47.6" y="23.9" width="9.8" height="9.5">
						<feColorMatrix  type="matrix" values="1 0 0 0 0  0 1 0 0 0  0 0 1 0 0  0 0 0 1 0"/>
					</filter>
				</defs>
				<mask maskUnits="userSpaceOnUse" x="47.6" y="23.9" width="9.8" height="9.5" id="mask-4_3_">
					<g class="st6">
						<polygon id="path-3_3_" class="st1" points="47.7,23.9 47.7,33.4 92.5,33.4 92.5,23.9 						"/>
					</g>
				</mask>
				<path id="Fill-21" class="st7" d="M49.5,29.6h3.5l2.2,3.8h2.2l-2.2-3.8c1,0,1.9-0.9,1.9-1.9v-1.9c0-1-0.9-1.9-1.9-1.9h-7.6v1.9
					h7.5c0.1,0,0.1,0.1,0.1,0.1v1.6c0,0.1-0.1,0.1-0.1,0.1h-7.5v5.7h1.9V29.6"/>
			</g>
			<polyline id="Fill-23" class="st1" points="103,73.1 103,79.7 97.3,73.1 95.4,73.1 95.4,82.6 97.3,82.6 97.3,76 102.9,82.6 
				104.9,82.6 104.9,73.1 103,73.1 			"/>
		</g>
	</g>
</g>
</svg>
