<?xml version="1.0" encoding="utf-8"?>
<!-- Generator: Adobe Illustrator 22.1.0, SVG Export Plug-In . SVG Version: 6.00 Build 0)  -->
<svg version="1.1" id="Layer_1" xmlns="http://www.w3.org/2000/svg" xmlns:xlink="http://www.w3.org/1999/xlink" x="0px" y="0px"
	 viewBox="0 0 250 110" style="enable-background:new 0 0 250 110;" xml:space="preserve">
<style type="text/css">
	.st0{fill:#FFFFFF;}
	.st1{filter:url(#Adobe_OpacityMaskFilter);}
	.st2{mask:url(#mask-2_1_);fill:#FFFFFF;}
	.st3{filter:url(#Adobe_OpacityMaskFilter_1_);}
	.st4{mask:url(#mask-2_2_);fill:#FFFFFF;}
	.st5{filter:url(#Adobe_OpacityMaskFilter_2_);}
	.st6{mask:url(#mask-2_3_);fill:#FFFFFF;}
</style>
<g id="Overview">
	<g id="Overview-1920px" transform="translate(-910.000000, -2776.000000)">
		<g id="RadeonVegaRX-Stacked-White-RGB" transform="translate(910.000000, 2776.000000)">
			<polyline id="Fill-1" class="st0" points="153.2,88.1 153.2,89.5 155,89.5 155.3,89.2 155.3,88.4 155,88.1 153.2,88.1 			"/>
			<path id="Fill-2" class="st0" d="M155.5,91.6l-1-1.4h-1.3v1.4h-0.8v-4.2h3l0,0l0.7,0.7v1.5l-0.6,0.6l0,0v0l1,1.4H155.5
				L155.5,91.6z M150.9,92.8h6.7V86h-6.7V92.8z"/>
			<path id="Fill-3" class="st0" d="M162.8,91.6l-1.2-1.6l-1.2,1.6h-1l1.7-2.2l-1.6-2h1l1.1,1.5l1.1-1.5h1l-1.6,2l1.7,2.2H162.8
				L162.8,91.6z M158.2,92.8h6.7V86h-6.7V92.8z"/>
			<polyline id="Fill-4" class="st0" points="144.8,86 144.8,90.6 141.1,86 139.8,86 139.8,92.8 141.1,92.8 141.1,88.1 144.8,92.8 
				146.1,92.8 146.1,86 144.8,86 			"/>
			<path id="Fill-5" class="st0" d="M98.8,86l-3,6.8l1.5,0l2.4-5.4v0l0,0l1.1,2.5h-1.2l0,0L98.4,91l0,0l2.8,0l0.8,1.8h1.5l-3-6.8
				H98.8L98.8,86z M99.5,89.9L99.5,89.9L99.5,89.9L99.5,89.9L99.5,89.9z"/>
			<polyline id="Fill-6" class="st0" points="119,86 119,92.8 124,92.8 124,91.6 120.3,91.6 120.3,90 123.5,90 123.5,88.8 
				120.3,88.8 120.3,87.2 123.4,87.2 124.5,86 119,86 			"/>
			<path id="Fill-7" class="st0" d="M129.9,86L129.9,86L129.9,86l-1.1,1.1v4.5l1.1,1.1l0,0v0h4v0l0,0l1.1-1.1v-4.5l-1.1-1.1l0,0v0
				H129.9L129.9,86z M129.9,91.1v-3.4l0.6-0.6h2.6l0.6,0.6v3.4l-0.6,0.6h-2.6L129.9,91.1L129.9,91.1z"/>
			<path id="Fill-8" class="st0" d="M85,86v6.8h1.3v-2.2h2.1l1.6,2.2h1.6L90,90.5l0,0l0,0l1-1v-2.3L89.9,86l0,0H85L85,86z
				 M86.4,87.2h2.9l0.5,0.5v1.2l-0.5,0.5h-2.9V87.2L86.4,87.2z"/>
			<path id="Fill-9" class="st0" d="M107.8,86v6.8h5l1.4-1.4v-4.1l-1.3-1.3H107.8L107.8,86z M109.2,87.2h3l0.6,0.6V91l-0.6,0.6h-3
				V87.2L109.2,87.2z"/>
			<polyline id="Fill-10" class="st0" points="110,96.3 110.5,96.3 112.9,102.3 115.3,96.3 115.8,96.3 113.1,102.9 112.6,102.9 
				110,96.3 			"/>
			<polyline id="Fill-11" class="st0" points="118.8,96.3 122.7,96.3 122.7,96.8 119.2,96.8 119.2,99.2 121.9,99.2 121.9,99.7 
				119.2,99.7 119.2,102.4 123,102.4 123,102.9 118.8,102.9 118.8,96.3 			"/>
			<path id="Fill-12" class="st0" d="M130.7,100.2H129v-0.4h2.2v2.5c-0.1,0.1-0.2,0.2-0.4,0.3c-0.2,0.1-0.3,0.2-0.5,0.3
				c-0.2,0.1-0.4,0.1-0.7,0.2c-0.3,0-0.5,0.1-0.9,0.1c-0.5,0-0.9-0.1-1.3-0.3c-0.4-0.2-0.7-0.4-1-0.7c-0.3-0.3-0.5-0.7-0.6-1.1
				c-0.2-0.4-0.2-0.9-0.2-1.4c0-0.5,0.1-0.9,0.2-1.3c0.2-0.4,0.4-0.8,0.6-1.1c0.3-0.3,0.6-0.6,1-0.7c0.4-0.2,0.8-0.3,1.3-0.3
				c0.4,0,0.7,0.1,1,0.2c0.3,0.1,0.5,0.2,0.7,0.4c0.2,0.1,0.3,0.3,0.4,0.4c0.1,0.1,0.2,0.2,0.2,0.3l-0.4,0.2c0-0.1-0.1-0.1-0.2-0.3
				c-0.1-0.1-0.2-0.2-0.4-0.3c-0.2-0.1-0.4-0.2-0.6-0.3c-0.2-0.1-0.5-0.1-0.8-0.1c-0.4,0-0.8,0.1-1.1,0.2c-0.3,0.2-0.6,0.4-0.9,0.6
				c-0.2,0.3-0.4,0.6-0.5,0.9c-0.1,0.4-0.2,0.8-0.2,1.2c0,0.4,0.1,0.8,0.2,1.2c0.1,0.4,0.3,0.7,0.5,1c0.2,0.3,0.5,0.5,0.8,0.6
				c0.3,0.2,0.7,0.2,1.1,0.2c0.5,0,0.9-0.1,1.2-0.2c0.3-0.1,0.6-0.2,0.8-0.4V100.2"/>
			<g id="Group-17">
				<defs>
					<filter id="Adobe_OpacityMaskFilter" filterUnits="userSpaceOnUse" x="134.2" y="96.3" width="5.8" height="6.6">
						<feColorMatrix  type="matrix" values="1 0 0 0 0  0 1 0 0 0  0 0 1 0 0  0 0 0 1 0"/>
					</filter>
				</defs>
				<mask maskUnits="userSpaceOnUse" x="134.2" y="96.3" width="5.8" height="6.6" id="mask-2_1_">
					<g class="st1">
						<polygon id="path-1_1_" class="st0" points="124.9,7.1 85,7.1 85,102.9 164.8,102.9 164.8,7.1 						"/>
					</g>
				</mask>
				<path id="Fill-13" class="st2" d="M138.4,100.3l-1.4-3.4l-1.4,3.4H138.4L138.4,100.3z M136.8,96.3h0.5l2.7,6.6h-0.5l-0.9-2.1
					h-3.1l-0.8,2.1h-0.5L136.8,96.3L136.8,96.3z"/>
				<defs>
					<filter id="Adobe_OpacityMaskFilter_1_" filterUnits="userSpaceOnUse" x="85" y="7.1" width="39.9" height="70.1">
						<feColorMatrix  type="matrix" values="1 0 0 0 0  0 1 0 0 0  0 0 1 0 0  0 0 0 1 0"/>
					</filter>
				</defs>
				<mask maskUnits="userSpaceOnUse" x="85" y="7.1" width="39.9" height="70.1" id="mask-2_2_">
					<g class="st3">
						<polygon id="path-1_2_" class="st0" points="124.9,7.1 85,7.1 85,102.9 164.8,102.9 164.8,7.1 						"/>
					</g>
				</mask>
				<polyline id="Fill-15" class="st4" points="85,7.1 85,53.2 124.9,77.2 85,7.1 				"/>
				<defs>
					<filter id="Adobe_OpacityMaskFilter_2_" filterUnits="userSpaceOnUse" x="124.9" y="7.1" width="39.9" height="70.1">
						<feColorMatrix  type="matrix" values="1 0 0 0 0  0 1 0 0 0  0 0 1 0 0  0 0 0 1 0"/>
					</filter>
				</defs>
				<mask maskUnits="userSpaceOnUse" x="124.9" y="7.1" width="39.9" height="70.1" id="mask-2_3_">
					<g class="st5">
						<polygon id="path-1_3_" class="st0" points="124.9,7.1 85,7.1 85,102.9 164.8,102.9 164.8,7.1 						"/>
					</g>
				</mask>
				<polyline id="Fill-16" class="st6" points="164.8,7.1 164.8,53.2 124.9,77.2 164.8,7.1 				"/>
			</g>
		</g>
	</g>
</g>
</svg>
