<?xml version="1.0" encoding="utf-8"?>
<!-- Generator: Adobe Illustrator 22.1.0, SVG Export Plug-In . SVG Version: 6.00 Build 0)  -->
<svg version="1.1" id="Layer_1" xmlns="http://www.w3.org/2000/svg" xmlns:xlink="http://www.w3.org/1999/xlink" x="0px" y="0px"
	 viewBox="0 0 250 110" style="enable-background:new 0 0 250 110;" xml:space="preserve">
<style type="text/css">
	.st0{fill:#FFFFFF;}
</style>
<g>
	<path class="st0" d="M181.9,48l9.7-14.4h-5.2l-6.8,9.8l-5-9.8h-16l10.9,21.5l-6.6,9.9V54.9c-0.1-6-2-11.2-5.8-15.4
		c-3.6-4-8.2-6.2-13.9-6.5l-0.7,0c-5.5,0.3-10.2,2.5-13.8,6.5c-3.8,4.2-5.8,9.4-5.8,15.4v15.3c0,2.1,0.6,3.8,1.7,5.1
		c2.2,2.4,5.9,2.4,8.1,0c1.1-1.2,1.7-2.9,1.7-5V55c0-0.3,0-0.6,0-0.6c0,0,0,0,0,0c0.1-2.3,0.9-4.3,2.5-6c1.7-1.9,3.7-2.8,6.3-2.8
		c2.4,0,4.4,0.9,6.1,2.8c1.6,1.7,2.4,3.7,2.5,5.7c0,0.3,0,0.6,0,0.9v15.3c0,2.1,0.6,3.8,1.7,5c1.1,1.2,2.5,1.9,4,1.9
		c1.5,0,2.9-0.6,4-1.9c0.4-0.5,10.6-15.7,10.6-15.7l9.1,17.4l16.2-0.2L181.9,48z"/>
	<path class="st0" d="M88.7,77.4c0.8,0,1.2-1,1.5-1.8c0.5-1.6,0.6-2.4,1.1-4.5c0.4-2.4,0.7-3.7,1.1-5.9c0.4-2.3,1-6.1,1.4-10.1H104
		c0,0-1.1-8.1-1.5-10.2c-0.3-1.9-0.5-3.3-1-5.8c-0.4-2.3-0.6-3-1.1-4.6c-0.3-0.8-0.6-1.8-1.5-1.8c-0.8,0-1.2,1-1.5,1.8
		c-0.4,1.6-0.6,2.4-1,4.5c-0.4,2.4-0.7,3.7-1.1,5.9c-0.4,2.3-1,6.1-1.4,10.1H83.6c0,0,1.2,8.1,1.5,10.2c0.3,1.9,0.5,3.4,1,5.8
		c0.5,2.3,0.6,3,1.1,4.6C87.4,76.4,87.8,77.4,88.7,77.4"/>
	<path class="st0" d="M64.7,65.2c0.3,1.9,0.5,3.4,1,5.8c0.5,2.3,0.6,3,1.1,4.6c0.3,0.8,0.6,1.8,1.5,1.8c0.8,0,1.2-1,1.5-1.8
		c0.4-1.6,0.6-2.4,1-4.5c0.5-2.4,0.7-3.7,1.1-5.9c0.4-2.3,1-6.1,1.4-10.1h10.2c0,0-1.1-8.1-1.5-10.2c-0.3-1.9-0.5-3.4-1-5.8
		c-0.5-2.3-0.6-2.9-1.1-4.6c-0.3-0.8-0.6-1.8-1.5-1.8c-0.8,0-1.2,1-1.5,1.8c-0.5,1.6-0.6,2.4-1,4.5c-0.5,2.4-0.7,3.7-1.1,5.9
		c-0.4,2.3-1,6.1-1.4,10.1H63.2c0-0.1-1.1-8.1-1.5-10.2c-0.3-1.9-0.5-3.4-1-5.8c-0.5-2.3-0.6-2.9-1.1-4.6c-0.3-0.8-0.6-1.8-1.5-1.8
		c-0.8,0-1.2,1-1.5,1.8c-0.5,1.6-0.7,2.4-1.1,4.5c-0.5,2.4-0.7,3.7-1.1,5.9c-0.4,2.3-1,6.2-1.4,10.1h10.2
		C63.2,55.2,64.4,63.1,64.7,65.2"/>
	<rect x="112.7" y="23.3" class="st0" width="3.1" height="63.4"/>
</g>
</svg>
