<?xml version="1.0" encoding="utf-8"?>
<!-- Generator: Adobe Illustrator 22.1.0, SVG Export Plug-In . SVG Version: 6.00 Build 0)  -->
<svg version="1.1" id="Layer_1" xmlns="http://www.w3.org/2000/svg" xmlns:xlink="http://www.w3.org/1999/xlink" x="0px" y="0px"
	 viewBox="0 0 250 110" style="enable-background:new 0 0 250 110;" xml:space="preserve">
<style type="text/css">
	.st0{filter:url(#Adobe_OpacityMaskFilter);}
	.st1{fill:#FFFFFF;}
	.st2{mask:url(#mask-2_1_);}
</style>
<title>Group 3</title>
<desc>Created with Sketch.</desc>
<g id="Overview">
	<g id="Overview-1920px" transform="translate(-916.000000, -3115.000000)">
		<g id="Group-3" transform="translate(916.000000, 3115.000000)">
			<g id="Clip-2">
			</g>
			<defs>
				<filter id="Adobe_OpacityMaskFilter" filterUnits="userSpaceOnUse" x="80.5" y="10.1" width="88.9" height="88.9">
					<feColorMatrix  type="matrix" values="1 0 0 0 0  0 1 0 0 0  0 0 1 0 0  0 0 0 1 0"/>
				</filter>
			</defs>
			<mask maskUnits="userSpaceOnUse" x="80.5" y="10.1" width="88.9" height="88.9" id="mask-2_1_">
				<g class="st0">
					<polygon id="path-1_1_" class="st1" points="80.5,99.1 169.4,99.1 169.4,10.1 80.5,10.1 					"/>
				</g>
			</mask>
			<g id="Group" class="st2">
				<path id="Fill-1" class="st1" d="M149.1,56.3c-0.2,3.4-1.2,6.6-2.7,9.5c-0.4,0.8-0.9,1.6-1.4,2.4c-1.8,2.7-4.2,5.1-7,6.9
					c-0.8,0.5-1.6,1-2.4,1.4c-2.9,1.4-6.1,2.3-9.5,2.4c-0.4,0-0.8,0-1.2,0c-0.5,0-1.1,0-1.6-0.1c-3.4-0.2-6.6-1.2-9.5-2.6
					c-0.8-0.4-1.6-0.9-2.4-1.4c-2.7-1.8-5.1-4.2-6.9-7c-0.5-0.8-1-1.6-1.4-2.4c-1.4-2.9-2.3-6.1-2.5-9.5c0-0.4,0-0.8,0-1.2
					c0-0.6,0-1.1,0.1-1.6c0.2-3.4,1.2-6.6,2.6-9.5c0.4-0.8,0.9-1.6,1.4-2.4c1.8-2.7,4.2-5.1,7-6.9c0.8-0.5,1.6-1,2.4-1.4
					c2.9-1.4,6.1-2.3,9.5-2.5c0.4,0,0.8,0,1.2,0c0.5,0,1.1,0,1.6,0.1c3.4,0.2,6.6,1.2,9.5,2.6c0.8,0.4,1.6,0.9,2.4,1.4
					c2.7,1.8,5.1,4.2,6.9,7c0.5,0.8,1,1.6,1.4,2.4c1.4,2.9,2.3,6.1,2.4,9.5c0,0.4,0,0.8,0,1.1C149.1,55.2,149.1,55.7,149.1,56.3
					 M149.8,69.5c0.6-1,1.2-2.1,1.7-3.2c5.9,0.3,12.1-1.2,17.9-5.9l-0.5-14.8c-4.3,5-9.5,7.9-14.9,9.5c0-0.2,0-0.4,0-0.5
					c0-1.1-0.1-2.1-0.2-3.1c5.2-2.7,9.9-7.1,12.5-14l-7.8-12.6c-1.2,6.4-4.3,11.6-8.1,15.7c-0.6-1.1-1.2-2.1-2-3.1
					c3.2-5,5-11.1,3.8-18.4l-13.1-7c2.2,6.2,2.1,12.2,0.8,17.7c-1-0.6-2.1-1.2-3.2-1.7c0.3-5.9-1.2-12.1-5.9-17.9l-14.8,0.5
					c5,4.2,7.9,9.5,9.5,14.9c-0.2,0-0.3,0-0.5,0c-1.1,0-2.1,0.1-3.1,0.2c-2.7-5.2-7.1-9.9-14-12.5L95.2,21
					c6.4,1.2,11.6,4.3,15.7,8.1c-1.1,0.6-2.1,1.3-3.1,2c-5-3.2-11.1-5-18.4-3.8l-7,13.1c6.2-2.2,12.2-2.1,17.6-0.8
					c-0.6,1-1.2,2.1-1.7,3.2c-5.9-0.3-12.1,1.2-17.9,5.9L81,63.6c4.3-5,9.5-7.9,14.9-9.5c0,0.2,0,0.3,0,0.5c0,1.1,0.1,2.1,0.2,3.1
					c-5.2,2.7-9.9,7.1-12.5,14l7.8,12.6c1.2-6.4,4.3-11.6,8.1-15.7c0.6,1.1,1.3,2.1,2,3.1c-3.2,5-5,11.1-3.9,18.5l13.1,7
					c-2.2-6.2-2.1-12.2-0.8-17.7c1,0.6,2.1,1.2,3.2,1.7c-0.3,5.9,1.2,12.1,5.9,17.9l14.8-0.5c-5-4.3-7.9-9.5-9.5-14.9
					c0.2,0,0.3,0,0.5,0c1.1,0,2.1-0.1,3.1-0.2c2.7,5.2,7.1,9.9,14,12.5l12.6-7.9c-6.4-1.2-11.6-4.3-15.7-8.2c1.1-0.6,2.1-1.3,3.1-2
					c5,3.2,11.1,5,18.4,3.8l7-13.1C161.3,71,155.3,70.8,149.8,69.5"/>
				<path id="Fill-4" class="st1" d="M142.7,46.9c-0.3-0.6-0.6-1.2-0.9-1.8c-1.3-2.3-3.2-4.4-5.3-6c-0.6-0.4-1.1-0.8-1.7-1.1
					c-2.3-1.3-4.9-2.2-7.6-2.5c-0.7-0.1-1.4-0.1-2-0.1c0,0-0.1,0-0.1,0c-2.8,0-5.4,0.6-7.7,1.6c-0.6,0.3-1.2,0.6-1.8,0.9
					c-2.4,1.3-4.4,3.2-6,5.3c-0.4,0.5-0.8,1.1-1.1,1.7c-1.3,2.3-2.2,4.9-2.5,7.6c-0.1,0.7-0.1,1.4-0.1,2.1c0,0,0,0.1,0,0.1
					c0,2.7,0.6,5.4,1.6,7.7c0.3,0.6,0.6,1.2,0.9,1.8c1.3,2.3,3.2,4.4,5.3,6c0.6,0.4,1.1,0.8,1.7,1.1c2.3,1.3,4.9,2.2,7.6,2.5
					c0.7,0.1,1.4,0.1,2,0.1c0,0,0.1,0,0.1,0c2.7,0,5.4-0.6,7.7-1.6c0.6-0.3,1.2-0.6,1.8-0.9c2.4-1.3,4.4-3.2,6-5.3
					c0.4-0.5,0.8-1.1,1.1-1.7c1.3-2.3,2.2-4.8,2.5-7.6c0.1-0.7,0.1-1.4,0.1-2.1c0,0,0-0.1,0-0.1C144.3,51.8,143.7,49.2,142.7,46.9"
					/>
			</g>
		</g>
	</g>
</g>
</svg>
