<?xml version="1.0" encoding="utf-8"?>
<!-- Generator: Adobe Illustrator 22.1.0, SVG Export Plug-In . SVG Version: 6.00 Build 0)  -->
<svg version="1.1" id="Layer_1" xmlns="http://www.w3.org/2000/svg" xmlns:xlink="http://www.w3.org/1999/xlink" x="0px" y="0px"
	 viewBox="0 0 250 110" style="enable-background:new 0 0 250 110;" xml:space="preserve">
<style type="text/css">
	.st0{fill:#FEFEFE;}
</style>
<title>06_Killer_DoubleShot_Pro</title>
<desc>Created with Sketch.</desc>
<g id="Overview_1_">
	<g id="Overview-1920px_1_" transform="translate(-1547.000000, -3119.000000)">
		<g id="_x30_6_x5F_Killer_x5F_DoubleShot_x5F_Pro" transform="translate(1547.000000, 3119.000000)">
			<g id="Layer_1_1_">
				<g id="Overview">
					<g id="Overview-1920px">
						<g id="LOGO-BAR">
							<g id="Page-1">
								<path id="Fill-1" class="st0" d="M167.5,85.5c0.7,0,1.1,0.7,1.1,1.5v5.9c0,0.7-0.4,1.1-1.1,1.1h-4.4h-4.8
									c-0.7,0-1.1-0.4-1.1-1.1V87c0-0.7,0.4-1.5,1.1-1.5h4.8H167.5L167.5,85.5z M144.4,63.2c-0.7,0-1.5-0.4-1.5-1.1v-5.9
									c0-0.7,0.7-1.5,1.5-1.5h4.4h4.8c0.7,0,1.1,0.7,1.1,1.5v5.9c0,0.7-0.4,1.1-1.1,1.1h-4.8H144.4L144.4,63.2z M139.6,85.5
									c0.4,0,1.1,0.7,1.1,1.5v5.9c0,0.7-0.7,1.1-1.1,1.1h-4.8h-4.8c-0.4,0-1.1-0.4-1.1-1.1V87c0-0.7,0.7-1.5,1.1-1.5h4.8H139.6
									L139.6,85.5z M177.7,76.7v-4.4H163H151v-5.5h4.8c1.5,0,2.6-1.5,2.6-3.3v-9.2c0-1.8-1.1-3.3-2.6-3.3h-6.9h-6.6
									c-1.5,0-2.9,1.5-2.9,3.3v9.2c0,1.8,1.5,3.3,2.9,3.3h4.4v5.5h-11.7h-15.1v4.4h12.8v5.1h-4.8c-1.5,0-2.6,1.5-2.6,3.3v9.2
									c0,1.8,1.1,3.3,2.6,3.3h6.9h6.9c1.5,0,2.6-1.5,2.6-3.3v-9.2c0-1.8-1.1-3.3-2.6-3.3H137v-5.1h11.8h12.1v5.1h-4.8
									c-1.5,0-2.6,1.5-2.6,3.3v9.2c0,1.8,1.1,3.3,2.6,3.3h6.9h6.6c1.5,0,2.9-1.5,2.9-3.3v-9.2c0-1.8-1.5-3.3-2.9-3.3h-4.4v-5.1
									H177.7L177.7,76.7z"/>
								<polygon id="Fill-3" class="st0" points="165,15.8 84.2,96.7 85.8,98.4 166.6,17.4 								"/>
								<path id="Fill-5" class="st0" d="M106.1,54.2c-3,0-5.5,2.5-5.5,5.5c0,0.6,0.2,1.4,0.4,1.9c0.8,2.1,2.7,3.6,5.1,3.6
									c1.5,0,2.7-0.6,3.7-1.5v-0.1h0.2c1-1,1.6-2.4,1.6-3.9c0-1.8-1-3.5-2.4-4.4C108.4,54.6,107.3,54.2,106.1,54.2"/>
								<path id="Fill-7" class="st0" d="M106.1,45.7c3.9,0,7.5,1.7,10,4.3l4.8-4.6c-3.7-3.8-9-6.2-14.7-6.2s-10.9,2.4-14.6,6.1
									l4.8,4.6C98.7,47.3,102.2,45.7,106.1,45.7"/>
								<path id="Fill-9" class="st0" d="M106.1,32.2c7.7,0,14.7,3.2,19.6,8.3l4.8-4.6c-6.2-6.3-14.8-10.4-24.4-10.4
									c-9.5,0-18.1,3.9-24.3,10.2l4.8,4.6C91.5,35.3,98.4,32.2,106.1,32.2"/>
								<g id="Group-13" transform="translate(0.000000, 0.293540)">
									<path id="Fill-11" class="st0" d="M76.9,30.2c7.8-7.8,18.1-12,29.1-12s21.3,4.3,29.1,12c0.2,0.2,0.3,0.3,0.5,0.5l4.7-4.6
										c-8.7-8.9-20.7-14.5-34.2-14.5c-13.2,0-25.3,5.4-33.9,14.2L76.9,30.2L76.9,30.2z"/>
								</g>
							</g>
						</g>
					</g>
				</g>
			</g>
		</g>
	</g>
</g>
</svg>
