<?xml version="1.0" encoding="utf-8"?>
<!-- Generator: Adobe Illustrator 22.1.0, SVG Export Plug-In . SVG Version: 6.00 Build 0)  -->
<svg version="1.1" id="Layer_1" xmlns="http://www.w3.org/2000/svg" xmlns:xlink="http://www.w3.org/1999/xlink" x="0px" y="0px"
	 viewBox="0 0 250 110" style="enable-background:new 0 0 250 110;" xml:space="preserve">
<style type="text/css">
	.st0{fill:#FEFEFE;}
	.st1{filter:url(#Adobe_OpacityMaskFilter);}
	.st2{fill:#FFFFFF;}
	.st3{mask:url(#mask-2_1_);fill:#FEFEFE;}
</style>
<title>Page 1</title>
<desc>Created with Sketch.</desc>
<g id="Overview">
	<g id="Overview-1920px" transform="translate(-274.000000, -3430.000000)">
		<g id="Group-2" transform="translate(0.000000, 3352.000000)">
			<g id="Page-1" transform="translate(274.000000, 78.000000)">
				<path id="Fill-1" class="st0" d="M97.5,20.3v41l11.7,11.8V62.6l-3.8-3.8V48.6l6.2,9.6v34.1l5.6-14.1l6.3-6.3V28.8l-7.2,20
					l-11.9-12L97.5,20.3z M152.4,20.3v41l-11.7,11.8V62.6l3.8-3.8V48.6l-6.2,9.6v34.1l-5.6-14.1l-6.3-6.3V28.8l7.2,20l11.9-12
					L152.4,20.3z"/>
				<g id="Group-4" transform="translate(0.000000, 0.450102)">
					<g id="Clip-3">
					</g>
					<defs>
						<filter id="Adobe_OpacityMaskFilter" filterUnits="userSpaceOnUse" x="79" y="8.6" width="91.9" height="92.4">
							<feColorMatrix  type="matrix" values="1 0 0 0 0  0 1 0 0 0  0 0 1 0 0  0 0 0 1 0"/>
						</filter>
					</defs>
					<mask maskUnits="userSpaceOnUse" x="79" y="8.6" width="91.9" height="92.4" id="mask-2_1_">
						<g class="st1">
							<polygon id="path-1_1_" class="st2" points="170.9,101 170.9,8.6 79,8.6 79,101 							"/>
						</g>
					</mask>
					<path id="Fill-2" class="st3" d="M164.4,8.6c-0.3,0-0.5,0-0.5,0S92,8.7,85.6,8.7c-6.4,0-6.6,6-6.6,6s0.2,62,0,70.2
						c-0.1,7.1,4.9,9.1,4.9,9.1l20.2,7h41c0,0,11-3.8,19.5-6.6c6.1-2,6.2-6.8,6.2-6.8s-0.2-63.7,0-71.8C171,9.6,165.9,8.6,164.4,8.6
						 M163.2,14.1c0.5,0,1.3,0.1,1.6,0.5c0.4,0.4,0.5,1.2,0.5,2.2c-0.2,7.7,0,67,0,69.6c0,0.5-0.2,2.3-3,3.2
						c-7.2,2.4-16,5.4-18.4,6.2h-38.6l-18.8-6.5c-0.5-0.3-2.5-1.6-2.4-5.2c0.1-7.8,0-63.9,0-67.9c0.2-2.2,1.9-2.2,2.6-2.2
						c6.2,0,76.1-0.1,76.1-0.1c0.1,0,0.2,0,0.3,0L163.2,14.1"/>
				</g>
			</g>
		</g>
	</g>
</g>
</svg>
