<?xml version="1.0" encoding="utf-8"?>
<!-- Generator: Adobe Illustrator 22.1.0, SVG Export Plug-In . SVG Version: 6.00 Build 0)  -->
<svg version="1.1" id="Layer_1" xmlns="http://www.w3.org/2000/svg" xmlns:xlink="http://www.w3.org/1999/xlink" x="0px" y="0px"
	 viewBox="0 0 250 110" style="enable-background:new 0 0 250 110;" xml:space="preserve">
<style type="text/css">
	.st0{fill:#FEFEFE;}
	.st1{filter:url(#Adobe_OpacityMaskFilter);}
	.st2{fill:#FFFFFF;}
	.st3{mask:url(#mask-2_1_);fill:#FEFEFE;}
</style>
<title>Page 1</title>
<desc>Created with Sketch.</desc>
<g id="Overview">
	<g id="Overview-1920px" transform="translate(-879.000000, -3443.000000)">
		<g id="Group-5" transform="translate(640.000000, 3350.000000)">
			<g id="Page-1" transform="translate(239.000000, 93.000000)">
				<polygon id="Fill-1" class="st0" points="177.9,61 175.7,72.1 164,72.1 166.2,61 158.8,61 153.2,88.3 160.6,88.3 162.9,77.4 
					174.5,77.4 172.3,88.3 179.7,88.3 185.3,61 				"/>
				<g id="Group-9" transform="translate(0.000000, 0.629893)">
					<path id="Fill-2" class="st0" d="M139.5,71.3l-8.6,0l11.8-14C141.9,60.1,139.5,71.3,139.5,71.3 M108.1,71.3l-8.6,0l11.8-14
						C110.5,60.1,108.1,71.3,108.1,71.3 M79.4,77.8l-2.1,10.1h9l2-9.6h18.4l-1.9,9.7h8.9l2-9.7h22.4l-1.9,9.7h8.9l2-9.7l7.9,0
						c0-3.7-2.9-6.7-6.5-6.9l0,0h0l6-29.7l-9,0l-24.4,29.8h-4l6-29.7l-9,0L89.9,71.2l6.3-29.5h-7.3c-0.1,0.4-0.3,1-0.7,1.8
						c-0.7,1.3-1.5,2.4-2.4,3.2c-1.4,1.2-3,2-4.8,2.4c-1.2,0.2-0.7,0.3-3.5,0.5l-1.3,6l8.1,0.1l-4.2,19.9"/>
					<g id="Group-6" transform="translate(137.039501, 50.396883)">
						<g id="Clip-5">
						</g>
						<defs>
							<filter id="Adobe_OpacityMaskFilter" filterUnits="userSpaceOnUse" x="45.2" y="20.9" width="22.4" height="16.4">
								<feColorMatrix  type="matrix" values="1 0 0 0 0  0 1 0 0 0  0 0 1 0 0  0 0 0 1 0"/>
							</filter>
						</defs>
						<mask maskUnits="userSpaceOnUse" x="45.2" y="20.9" width="22.4" height="16.4" id="mask-2_1_">
							<g class="st1">
								<polygon id="path-1_1_" class="st2" points="67.6,37.3 67.6,20.9 45.2,20.9 45.2,37.3 								"/>
							</g>
						</mask>
						<path id="Fill-4" class="st3" d="M62.6,32.3L62.6,32.3l-5.2,0L67.6,21l-18.9,0l-1.2,5.5l7.6,0.1l-10,10.9l22.3,0
							C67.4,34.6,65.3,32.3,62.6,32.3"/>
					</g>
					<path id="Fill-7" class="st0" d="M82.8,82c-16.9-4-27.1-11.1-28.4-21.5c-2.3-19.3,28.5-36,78.8-37.5c11.9-0.4,22.6,0,37.6,1.9
						c0.3,0,0.6,0,0.9,0.1h0.2v0c0-0.6-0.4-1.1-0.9-1.3c-0.1,0-0.2,0-0.3,0v0c-11.2-1.8-31.5-3.5-47.1-2.9
						c-50.3,2-81,18.9-78.6,39.2c1.3,10.8,11.5,18.3,28.4,22.6c2.8,0.7,5.7,1.3,8.8,1.9"/>
				</g>
			</g>
		</g>
	</g>
</g>
</svg>
