<?xml version="1.0" encoding="utf-8"?>
<!-- Generator: Adobe Illustrator 22.1.0, SVG Export Plug-In . SVG Version: 6.00 Build 0)  -->
<svg version="1.1" id="Layer_1" xmlns="http://www.w3.org/2000/svg" xmlns:xlink="http://www.w3.org/1999/xlink" x="0px" y="0px"
	 viewBox="0 0 250 110" style="enable-background:new 0 0 250 110;" xml:space="preserve">
<style type="text/css">
	.st0{fill:none;}
	.st1{fill:url(#Shape_2_);}
	.st2{fill:url(#Shape_3_);}
</style>
<title>06_RGB_lighting</title>
<desc>Created with Sketch.</desc>
<g id="Overview">
	<g id="Overview-1920px" transform="translate(-1568.000000, -3441.000000)">
		<g id="Group-7" transform="translate(1280.000000, 3352.000000)">
			<g id="_x30_6_x5F_RGB_x5F_lighting" transform="translate(195.000000, 70.000000)">
				<g id="Layer_1_1_">
					<g id="Layer_2_1_">
						<g id="space">
							<rect id="Rectangle-path" x="92.5" y="19" class="st0" width="250" height="109.6"/>
						</g>
					</g>
					<g id="Group" transform="translate(86.000000, 19.000000)">
						
							<linearGradient id="Shape_2_" gradientUnits="userSpaceOnUse" x1="-436.814" y1="470.4389" x2="-436.814" y2="469.6809" gradientTransform="matrix(21.5 0 0 -71.4 9501.75 33612.7305)">
							<stop  offset="0" style="stop-color:#00A8DE"/>
							<stop  offset="0.2" style="stop-color:#333390"/>
							<stop  offset="0.4" style="stop-color:#E81387"/>
							<stop  offset="0.6" style="stop-color:#EA2D2E"/>
							<stop  offset="0.8" style="stop-color:#FCE82B"/>
							<stop  offset="1" style="stop-color:#009D54"/>
						</linearGradient>
						<path id="Shape" class="st1" d="M110.7,66.1L110.7,66.1c-1-1-1.5-1.7-1.8-2.6c-0.2-0.6-0.3-1.1-0.3-2V25.4l-9.1-6.2v42.7
							c0,3.8,1.5,7.4,4.2,10.1l17.2,18.6l0.1-13.1L110.7,66.1L110.7,66.1z"/>
						
							<linearGradient id="Shape_3_" gradientUnits="userSpaceOnUse" x1="-436.814" y1="470.4389" x2="-436.814" y2="469.6809" gradientTransform="matrix(21.5 0 0 -71.4 9544.5518 33612.7305)">
							<stop  offset="0" style="stop-color:#00A8DE"/>
							<stop  offset="0.2" style="stop-color:#333390"/>
							<stop  offset="0.4" style="stop-color:#E81387"/>
							<stop  offset="0.6" style="stop-color:#EA2D2E"/>
							<stop  offset="0.8" style="stop-color:#FCE82B"/>
							<stop  offset="1" style="stop-color:#009D54"/>
						</linearGradient>
						<path id="Shape_1_" class="st2" d="M152.6,66.1L152.6,66.1c1-1,1.5-1.7,1.8-2.6c0.2-0.6,0.3-1.1,0.3-2V25.4l9.1-6.2v42.7
							c0,3.8-1.5,7.4-4.2,10.1l-17.2,18.6l-0.1-13.1L152.6,66.1L152.6,66.1z"/>
					</g>
				</g>
			</g>
		</g>
	</g>
</g>
</svg>
