<?xml version="1.0" encoding="utf-8"?>
<!-- Generator: Adobe Illustrator 22.1.0, SVG Export Plug-In . SVG Version: 6.00 Build 0)  -->
<svg version="1.1" id="圖層_2" xmlns="http://www.w3.org/2000/svg" xmlns:xlink="http://www.w3.org/1999/xlink" x="0px" y="0px"
	 viewBox="0 0 250 109.6" style="enable-background:new 0 0 250 109.6;" xml:space="preserve">
<style type="text/css">
	.st0{fill:#1E1E1E;}
	.st1{fill:#76B900;}
	.st2{fill:#FFFFFF;}
</style>
<g id="NVIDIA_GeForce_GTX_Logo_2_">
	<g>
		<polygon class="st0" points="102.1,27.3 87.1,83.2 87.1,83.2 214.5,83.2 229.5,27.3 		"/>
		<polygon class="st1" points="229.5,27.3 214.5,83.2 217.3,83.2 232.3,27.3 		"/>
		<polygon class="st1" points="22.5,27.3 22.5,83.2 87.1,83.2 102.1,27.3 		"/>
		<g id="NVIDIA_Logo_10_">
			<path id="NVIDIA_10_" class="st2" d="M52.5,64.3l0,8.4h2.4v-8.4L52.5,64.3z M33.7,64.3v8.5h2.4v-6.4l1.9,0c0.6,0,1.1,0.2,1.4,0.5
				c0.4,0.4,0.5,1.1,0.5,2.2v3.7l2.3,0l0-4.7c0-3.3-2.1-3.8-4.2-3.8H33.7 M56.4,64.3v8.4h3.9c2.1,0,2.7-0.3,3.5-1.1
				c0.5-0.5,0.8-1.7,0.8-3c0-1.2-0.3-2.2-0.8-2.9c-0.9-1.2-2.2-1.4-4.1-1.4H56.4z M58.7,66.1h1c1.5,0,2.5,0.7,2.5,2.4
				c0,1.7-1,2.4-2.5,2.4h-1V66.1z M49.1,64.3l-2,6.7l-1.9-6.7l-2.6,0l2.7,8.4h3.4l2.7-8.4H49.1z M65.6,72.7H68v-8.4l-2.4,0
				L65.6,72.7z M72.3,64.3L69,72.7h2.4l0.5-1.5h3.9l0.5,1.5h2.6l-3.4-8.4L72.3,64.3z M80.5,73.4c-0.7,0-1.2-0.5-1.2-1.2
				c0-0.7,0.5-1.2,1.2-1.2c0.7,0,1.2,0.5,1.2,1.2C81.7,72.9,81.2,73.4,80.5,73.4z M80.5,71.3c-0.5,0-0.9,0.4-0.9,1
				c0,0.5,0.4,1,0.9,1c0.5,0,0.9-0.4,0.9-1C81.5,71.7,81.1,71.3,80.5,71.3z M80.8,72.9l-0.2-0.5h-0.1v0.5h-0.3v-1.3h0.5
				c0.3,0,0.4,0.2,0.4,0.4c0,0.2-0.1,0.3-0.2,0.3l0.3,0.5H80.8z M80.6,71.9h-0.2v0.3h0.2c0.1,0,0.2-0.1,0.2-0.2
				C80.8,71.9,80.7,71.9,80.6,71.9z M73.9,65.8l1.4,4h-2.9L73.9,65.8z"/>
			<path id="Eye_Mark_10_" class="st2" d="M49.4,44.5v-2c0.2,0,0.4,0,0.6,0c5.6-0.2,9.2,4.8,9.2,4.8s-3.9,5.5-8.2,5.5
				c-0.6,0-1.2-0.1-1.6-0.3v-6.2c2.2,0.3,2.6,1.2,3.9,3.4l2.9-2.4c0,0-2.1-2.8-5.7-2.8C50.1,44.4,49.7,44.5,49.4,44.5 M49.4,37.8v3
				c0.2,0,0.4,0,0.6,0c7.7-0.3,12.8,6.3,12.8,6.3s-5.8,7-11.8,7c-0.6,0-1.1-0.1-1.6-0.1v1.9c0.4,0.1,0.8,0.1,1.3,0.1
				c5.6,0,9.7-2.9,13.6-6.2c0.6,0.5,3.3,1.8,3.9,2.3c-3.7,3.1-12.4,5.6-17.3,5.6c-0.5,0-0.9,0-1.4-0.1v2.6h21.3V37.8H49.4z
				 M49.4,52.4V54c-5.2-0.9-6.6-6.3-6.6-6.3s2.5-2.8,6.6-3.2v1.8c0,0,0,0,0,0C47.2,46,45.5,48,45.5,48S46.4,51.4,49.4,52.4
				 M40.2,47.5c0,0,3.1-4.5,9.2-5v-1.6c-6.8,0.5-12.7,6.3-12.7,6.3s3.3,9.6,12.7,10.5v-1.7C42.5,55,40.2,47.5,40.2,47.5z"/>
		</g>
	</g>
	<g>
		<path class="st2" d="M110.4,59.6c0-1.4,1.1-2.5,2.5-2.5h9.4v2.7h-8.2c-0.4,0-0.8,0.3-0.8,0.7v7c0,0.2,0.1,0.4,0.2,0.5l1,1
			c0.2,0.2,0.3,0.2,0.5,0.2h4c0.4,0,0.7-0.3,0.7-0.7v-2.7h-3.5v-2.7h6.5v6.3c0,1.4-1.1,2.5-2.5,2.5h-6.6c-0.2,0-0.4-0.1-0.5-0.2
			l-2.5-2.5c-0.1-0.1-0.2-0.3-0.2-0.5V59.6z"/>
		<path class="st2" d="M136,57.1v2.6h-4.3V72h-2.9V59.7h-4.3v-2.6H136z"/>
		<path class="st2" d="M147.1,57.1h3.2l-4.7,7.1l4.9,7.8h-3.5l-3.2-5.1l-3.3,5.1h-3.2l4.9-7.5l-4.6-7.4h3.5l2.9,4.7L147.1,57.1z"/>
		<g>
			<g>
				<path class="st2" d="M110.4,41c0-1.4,1.1-2.5,2.5-2.5h9.4v2.7h-8.2c-0.4,0-0.8,0.3-0.8,0.7v7c0,0.2,0.1,0.4,0.2,0.5l1,1
					c0.2,0.2,0.3,0.2,0.5,0.2h4c0.4,0,0.7-0.3,0.7-0.7v-2.7h-3.5v-2.7h6.5V51c0,1.4-1.1,2.5-2.5,2.5h-6.6c-0.2,0-0.4-0.1-0.5-0.2
					l-2.5-2.5c-0.1-0.1-0.2-0.3-0.2-0.5V41z"/>
				<path class="st2" d="M128.3,41.2v3.5h6.1v2.6h-6.1v3.5h7.5v2.6h-10.4V38.5h10.4v2.6H128.3z"/>
				<path class="st2" d="M140.9,53.4H138V38.5h10.4v2.6h-7.5v3.5h6.1v2.6h-6.1V53.4z"/>
				<path class="st2" d="M150.5,41c0-1.4,1.1-2.5,2.5-2.5h7.5c1.4,0,2.5,1.1,2.5,2.5V51c0,1.4-1.1,2.5-2.5,2.5H153
					c-1.4,0-2.5-1.1-2.5-2.5V41z M159.3,50.8c0.4,0,0.7-0.3,0.7-0.7v-8.1c0-0.4-0.3-0.8-0.7-0.8h-5.2c-0.4,0-0.7,0.3-0.7,0.8V50
					c0,0.4,0.3,0.7,0.7,0.7H159.3z"/>
				<path class="st2" d="M177.8,53.4h-3.1l-3.7-6.1h-2.7v6.1h-2.9V38.5h8.9c1.4,0,2.5,1.1,2.5,2.5v3.8c0,1.4-1.1,2.5-2.5,2.5h-0.2
					L177.8,53.4z M168.3,44.7h4.9c0.4,0,0.7-0.3,0.7-0.7v-2c0-0.4-0.3-0.8-0.7-0.8h-4.9V44.7z"/>
				<path class="st2" d="M189.3,41.2H183c-0.4,0-0.7,0.3-0.7,0.7V50c0,0.4,0.3,0.7,0.7,0.7h6.3v2.6h-7.5c-1.4,0-2.5-1.1-2.5-2.5V41
					c0-1.4,1.1-2.5,2.5-2.5h7.5V41.2z"/>
				<path class="st2" d="M194.6,41.2v3.5h6.1v2.6h-6.1v3.5h7.5v2.6h-10.4V38.5h10.4v2.6H194.6z"/>
			</g>
			<g>
				<path class="st2" d="M204.6,38.5c0.7,0,1.2,0.5,1.2,1.2c0,0.7-0.5,1.2-1.2,1.2c-0.7,0-1.2-0.5-1.2-1.2
					C203.5,39,204,38.5,204.6,38.5z M204.6,40.7c0.5,0,0.9-0.4,0.9-0.9c0-0.5-0.4-1-0.9-1c-0.5,0-0.9,0.4-0.9,1
					C203.7,40.2,204.1,40.7,204.6,40.7z M205.1,40.2h-0.3l-0.3-0.5h-0.1v0.5h-0.2v-1.1h0.7c0.1,0,0.2,0.1,0.2,0.2v0.2
					c0,0.1-0.1,0.2-0.2,0.2h-0.1L205.1,40.2z M204.8,39.6C204.8,39.6,204.9,39.6,204.8,39.6l0.1-0.2c0,0,0-0.1-0.1-0.1h-0.3v0.3
					H204.8z"/>
			</g>
		</g>
	</g>
</g>
</svg>
