<?xml version="1.0" encoding="utf-8"?>
<!-- Generator: Adobe Illustrator 22.1.0, SVG Export Plug-In . SVG Version: 6.00 Build 0)  -->
<svg version="1.1" xmlns="http://www.w3.org/2000/svg" xmlns:xlink="http://www.w3.org/1999/xlink" x="0px" y="0px"
	 viewBox="0 0 250 110" style="enable-background:new 0 0 250 110;" xml:space="preserve">
<style type="text/css">
	.st0{display:none;}
	.st1{display:inline;stroke:#FFFFFF;stroke-miterlimit:10;}
	.st2{fill:#FFFFFF;}
	.st3{fill:#8DC63F;}
</style>
<g id="圖層_3" class="st0">
	<rect x="-24" y="-14.2" class="st1" width="320" height="145"/>
</g>
<g id="圖層_4">
	<g>
		<path class="st2" d="M50.3,60.2c0-2.8,2.2-5,5-5h18.9v5.4H57.7c-0.8,0-1.5,0.7-1.5,1.5v14c0,0.4,0.2,0.8,0.4,1l2.1,2.1
			c0.3,0.3,0.7,0.4,1.1,0.4h8c0.8,0,1.5-0.7,1.5-1.5v-5.4h-7v-5.4h13v12.7c0,2.7-2.2,4.9-5,4.9H57c-0.4,0-0.8-0.1-1.1-0.4l-5.1-5.1
			c-0.3-0.3-0.4-0.7-0.4-1V60.2z"/>
		<rect x="79.8" y="69.4" class="st2" width="8.6" height="4.8"/>
		<path class="st2" d="M110.7,66.6c2.6,0.2,4.6,2.4,4.6,4.9v8.5c0,2.8-2.2,5-5,5H93.3v-5.3H108c0.8,0,1.5-0.7,1.5-1.5v-4.2
			c0-0.8-0.7-1.5-1.5-1.5H97.4c-2.6-0.2-4.5-2.4-4.5-4.9v-7.4c0-2.8,2.2-5,4.9-5h16.5v5.3h-14.2c-0.8,0-1.5,0.7-1.5,1.5v3.1
			c0,0.8,0.7,1.5,1.5,1.5L110.7,66.6z"/>
		<polygon class="st2" points="142.1,55.2 132.6,70.9 132.6,85 126.8,85 126.8,70.9 117.2,55.2 124,55.2 130,65.2 136.1,55.2 		"/>
		<polygon class="st2" points="151.1,55.2 164.6,75 164.6,55.2 170.4,55.2 170.4,85 164.4,85 150.9,65.2 150.9,85 145.2,85 
			145.2,55.2 		"/>
		<path class="st2" d="M195.5,60.5h-12.6c-0.8,0-1.5,0.7-1.5,1.5v16.3c0,0.8,0.7,1.5,1.5,1.5h12.6V85h-14.9c-2.8,0-5-2.2-5-4.9V60.2
			c0-2.8,2.2-5,5-5h14.9V60.5z"/>
		<path class="st2" d="M200.6,57.1c0.1,0,0.1,0,0.1-0.1v-0.2c0-0.1,0-0.1-0.1-0.1h-0.6v0.5H200.6z M201.2,58.3h-0.5l-0.5-0.9h-0.2
			v0.9h-0.4v-1.9h1.2c0.2,0,0.3,0.1,0.3,0.3v0.4c0,0.2-0.1,0.3-0.3,0.3h-0.2L201.2,58.3z M200.4,59c0.9,0,1.7-0.8,1.7-1.7
			c0-0.9-0.7-1.7-1.7-1.7c-0.9,0-1.6,0.8-1.6,1.7C198.7,58.2,199.5,59,200.4,59 M200.4,55.2c1.2,0,2.1,0.9,2.1,2.1
			c0,1.2-0.9,2.1-2.1,2.1c-1.2,0-2.1-0.9-2.1-2.1C198.3,56.1,199.2,55.2,200.4,55.2"/>
		<path class="st3" d="M45,34.7c0,0,3.1-4.6,9.3-5V28c-6.9,0.5-12.8,6.4-12.8,6.4s3.4,9.7,12.8,10.6v-1.8C47.3,42.3,45,34.7,45,34.7
			 M54.3,39.7v1.6C49,40.4,47.6,35,47.6,35s2.5-2.8,6.7-3.2v1.8c0,0,0,0,0,0c-2.2-0.3-3.9,1.8-3.9,1.8S51.3,38.7,54.3,39.7 M54.3,25
			V28c0.2,0,0.4,0,0.6,0c7.8-0.3,12.9,6.4,12.9,6.4s-5.8,7.1-11.9,7.1c-0.6,0-1.1-0.1-1.6-0.1v1.9c0.4,0.1,0.9,0.1,1.3,0.1
			c5.7,0,9.7-2.9,13.7-6.3c0.7,0.5,3.3,1.8,3.9,2.4c-3.8,3.2-12.5,5.7-17.5,5.7c-0.5,0-0.9,0-1.4-0.1v2.7h21.5V25H54.3z M54.3,31.7
			v-2c0.2,0,0.4,0,0.6,0c5.6-0.2,9.3,4.8,9.3,4.8s-4,5.5-8.2,5.5c-0.6,0-1.2-0.1-1.7-0.3v-6.2c2.2,0.3,2.6,1.2,3.9,3.4l2.9-2.5
			c0,0-2.1-2.8-5.7-2.8C55,31.7,54.6,31.7,54.3,31.7"/>
		<path class="st2" d="M152.1,32l2.5,7h-5.2L152.1,32z M149.4,29.2l-5.9,14.9h4.1l0.9-2.6h7l0.9,2.6h4.5L155,29.2H149.4z
			 M137.6,44.1h4.2V29.2l-4.2,0V44.1z M108.4,29.2L104.9,41l-3.4-11.8l-4.5,0l4.8,14.9h6.1l4.8-14.9H108.4z M125.4,32.5h1.8
			c2.6,0,4.3,1.2,4.3,4.2c0,3.1-1.7,4.2-4.3,4.2h-1.8V32.5z M121.2,29.2v14.9h6.8c3.6,0,4.8-0.6,6.1-2c0.9-1,1.5-3,1.5-5.3
			c0-2.1-0.5-4-1.4-5.1c-1.6-2.1-3.8-2.5-7.2-2.5H121.2z M81.4,29.2v14.9h4.2V32.8l3.3,0c1.1,0,1.9,0.3,2.4,0.8
			c0.7,0.7,0.9,1.9,0.9,3.9v6.5h4.1l0-8.2c0-5.9-3.7-6.7-7.4-6.7H81.4z M114.5,29.2l0,14.9h4.2V29.2H114.5z"/>
		<path class="st2" d="M163.9,42.6h-0.3v0.6h0.3c0.2,0,0.3-0.1,0.3-0.3S164.1,42.6,163.9,42.6 M164.2,44.4l-0.4-0.9h-0.2v0.9h-0.5
			v-2.2h0.9c0.4,0,0.7,0.3,0.7,0.7c0,0.3-0.2,0.5-0.4,0.6l0.5,0.9H164.2z M163.8,41.6c-0.9,0-1.7,0.7-1.7,1.7c0,1,0.7,1.7,1.7,1.7
			c0.9,0,1.7-0.7,1.7-1.7C165.5,42.3,164.8,41.6,163.8,41.6 M163.8,45.4c-1.2,0-2.1-0.9-2.1-2.1c0-1.2,0.9-2.1,2.1-2.1
			c1.2,0,2.1,0.9,2.1,2.1C165.9,44.4,165,45.4,163.8,45.4"/>
	</g>
</g>
</svg>
